<?xml version="1.0" encoding="UTF-8"?>
<!-- Generator: Adobe Illustrator 21.0.0, SVG Export Plug-In . SVG Version: 6.00 Build 0)  -->
<svg version="1.1" id="iiasa-logo" xmlns="http://www.w3.org/2000/svg" xmlns:xlink="http://www.w3.org/1999/xlink" x="0px" y="0px" width="225px" height="65px" viewBox="0 0 225 65" enable-background="new 0 0 225 65" xml:space="preserve">
<path id="iiasa-logo-text" fill="#00599D" d="M83.6,61.6h1.4v1.6h-1.4V61.6z M112.8,63.2h1.4v-1.6h-1.4V63.2z M128.9,63.2h1.4v-1.6  h-1.4V63.2z M62.2,56.1l-1.4,6.1h0l-1.4-6.1h-1.4l-1.4,6.1h0l-1.4-6.1h-1.3l1.9,7.3h1.4l1.4-6.2h0l1.5,6.2h1.4l1.9-7.3H62.2z   M72.2,56.1l-1.4,6.1h0l-1.4-6.1h-1.4l-1.4,6.1h0l-1.4-6.1h-1.3l1.9,7.3h1.4l1.4-6.2h0l1.5,6.2h1.4l1.9-7.3H72.2z M82.1,56.1  l-1.4,6.1h0l-1.4-6.1h-1.4l-1.4,6.1h0L75,56.1h-1.3l1.9,7.3h1.4l1.4-6.2h0l1.5,6.2h1.4l1.9-7.3H82.1z M87.1,56.1h1.2v7.3h-1.2V56.1z   M87.1,53.1h1.3v1.4h-1.3V53.1z M90.4,56.1h1.2v7.3h-1.2V56.1z M90.4,53.1h1.3v1.4h-1.3V53.1z M94.1,57.7c0.4-0.5,1.1-0.8,1.9-0.8  c0.5,0,1,0.1,1.2,0.5c0.2,0.3,0.3,0.6,0.3,1.2v0.3h-0.7c-2.5,0-3.4,1-3.4,2.5c0,1.4,0.9,2.1,2.1,2.1c1.1,0,1.7-0.5,2-1.1h0l0.1,1  h1.1c0-0.3-0.1-0.7-0.1-1.1v-3.8c0-1-0.3-1.5-0.6-1.8c-0.2-0.2-0.9-0.7-2-0.7c-0.7,0-1.5,0.2-2.1,0.6L94.1,57.7z M97.4,60.7  c0,1-0.7,1.8-1.7,1.8c-0.8,0-1.2-0.5-1.2-1.3c0-0.8,0.7-1.5,2.1-1.5c0.3,0,0.6,0,0.8,0V60.7z M100,63.1c0.5,0.3,1.2,0.4,2,0.4  c1.7,0,2.3-1,2.3-2.3c0-0.9-0.6-1.5-1.4-1.9l-0.4-0.2c-0.8-0.3-1.2-0.6-1.2-1.2c0-0.6,0.4-1,1.2-1c0.5,0,1.1,0.1,1.4,0.3l0.1-1  c-0.4-0.2-0.9-0.3-1.5-0.3c-1.4,0-2.4,0.9-2.4,2.1c0,0.9,0.4,1.4,1.4,1.9l0.8,0.4c0.7,0.3,0.9,0.6,0.9,1.1c0,0.6-0.5,1-1.4,1  c-0.6,0-1.2-0.2-1.7-0.5L100,63.1z M106.3,57.7c0.4-0.5,1.1-0.8,1.9-0.8c0.5,0,1,0.1,1.2,0.5c0.2,0.3,0.3,0.6,0.3,1.2v0.3h-0.7  c-2.5,0-3.4,1-3.4,2.5c0,1.4,0.9,2.1,2.1,2.1c1.1,0,1.7-0.5,2.1-1.1h0l0.1,1h1.1c0-0.3-0.1-0.7-0.1-1.1v-3.8c0-1-0.3-1.5-0.6-1.8  c-0.2-0.2-0.9-0.7-1.9-0.7c-0.7,0-1.5,0.2-2.1,0.6L106.3,57.7z M109.6,60.7c0,1-0.7,1.8-1.7,1.8c-0.8,0-1.2-0.5-1.2-1.3  c0-0.8,0.7-1.5,2.1-1.5c0.3,0,0.6,0,0.8,0V60.7z M116.6,57.7c0.4-0.5,1.1-0.8,1.9-0.8c0.5,0,1,0.1,1.2,0.5c0.2,0.3,0.3,0.6,0.3,1.2  v0.3h-0.7c-2.5,0-3.4,1-3.4,2.5c0,1.4,0.9,2.1,2.1,2.1c1.1,0,1.7-0.5,2.1-1.1h0l0.1,1h1.1c0-0.3-0.1-0.7-0.1-1.1v-3.8  c0-1-0.3-1.5-0.6-1.8c-0.2-0.2-0.9-0.7-2-0.7c-0.7,0-1.5,0.2-2.1,0.6L116.6,57.7z M120,60.7c0,1-0.7,1.8-1.7,1.8  c-0.8,0-1.2-0.5-1.2-1.3c0-0.8,0.7-1.5,2.1-1.5c0.3,0,0.6,0,0.8,0V60.7z M127.4,56.3c-0.4-0.2-0.9-0.3-1.4-0.3c-2,0-3.3,1.5-3.3,3.8  c0,2.1,1.1,3.7,3.2,3.7c0.5,0,1.2-0.2,1.5-0.3l-0.1-1.1c-0.4,0.2-0.9,0.4-1.5,0.4c-1.2,0-2-1-2-2.7c0-2,0.8-2.8,2-2.8  c0.6,0,1,0.1,1.4,0.3L127.4,56.3z M132.7,57.7c0.4-0.5,1.1-0.8,1.9-0.8c0.5,0,1,0.1,1.2,0.5c0.2,0.3,0.3,0.6,0.3,1.2v0.3h-0.7  c-2.5,0-3.4,1-3.4,2.5c0,1.4,0.9,2.1,2.1,2.1c1.1,0,1.7-0.5,2-1.1h0l0.1,1h1.1c0-0.3-0.1-0.7-0.1-1.1v-3.8c0-1-0.3-1.5-0.6-1.8  c-0.2-0.2-0.9-0.7-1.9-0.7c-0.7,0-1.5,0.2-2.1,0.6L132.7,57.7z M136.1,60.7c0,1-0.7,1.8-1.7,1.8c-0.8,0-1.2-0.5-1.2-1.3  c0-0.8,0.7-1.5,2.1-1.5c0.3,0,0.6,0,0.8,0V60.7z M142.3,62.3c-0.2,0.1-0.4,0.2-0.7,0.2c-0.5,0-0.8-0.3-0.8-1.1v-4.3h1.5v-1h-1.5  v-1.8l-1.2,0.4v1.5h-1.2v1h1.2v4.7c0,1.3,0.6,1.7,1.7,1.7c0.3,0,0.7-0.1,1-0.2V62.3z M54.9,23.1h1.5V11h-1.5V23.1z M58.9,23.1h1.5  v-5.3c0-1.6,0.7-2.4,1.9-2.4c0.9,0,1.5,0.6,1.5,2v5.7h1.5V17c0-1.9-1-2.8-2.6-2.8c-1,0-1.8,0.4-2.2,1.4h0l-0.1-1.3h-1.4  c0,0.6,0.1,1.3,0.1,1.9V23.1z M71.4,21.8c-0.3,0.1-0.5,0.2-0.9,0.2c-0.7,0-0.9-0.4-0.9-1.4v-5.2h1.8v-1.2h-1.8V12l-1.5,0.4v1.8h-1.4  v1.2h1.4v5.7c0,1.6,0.7,2.1,2,2.1c0.4,0,0.9-0.1,1.2-0.2V21.8z M78.9,19.1v-0.8c0-2.6-1.1-4.2-3.1-4.2c-2.2,0-3.4,1.8-3.4,4.5  c0,2.8,1.2,4.5,3.6,4.5c0.9,0,1.8-0.2,2.5-0.5l-0.1-1.3c-0.5,0.4-1.3,0.7-2,0.7c-1.6,0-2.4-1-2.4-3H78.9z M73.9,18  c0-2.1,0.9-2.8,1.8-2.8c1.2,0,1.7,0.9,1.7,2.8H73.9z M80.7,23.1h1.5v-4.7c0-1.9,0.8-2.9,1.9-2.9c0.2,0,0.4,0,0.6,0.1v-1.4  c-1.3,0-2,0.4-2.5,1.5h0L82,14.3h-1.4c0,0.6,0.1,1.3,0.1,1.9V23.1z M86,23.1h1.5v-5.3c0-1.6,0.7-2.4,1.9-2.4c0.9,0,1.5,0.6,1.5,2  v5.7h1.5V17c0-1.9-1-2.8-2.6-2.8c-1,0-1.8,0.4-2.2,1.4h0l-0.1-1.3h-1.4c0,0.6,0.1,1.3,0.1,1.9V23.1z M95,16.2  c0.5-0.6,1.4-0.9,2.3-0.9c0.6,0,1.2,0.2,1.5,0.6c0.3,0.4,0.3,0.8,0.3,1.4v0.4h-0.9c-3,0-4.2,1.3-4.2,3c0,1.7,1.1,2.6,2.5,2.6  c1.4,0,2.1-0.6,2.5-1.3h0l0.1,1.2h1.3c0-0.3-0.1-0.8-0.1-1.4v-4.6c0-1.2-0.4-1.8-0.8-2.2c-0.3-0.3-1.1-0.8-2.4-0.8  c-0.9,0-1.8,0.3-2.5,0.7L95,16.2z M99.1,19.9c0,1.2-0.8,2.2-2.1,2.2c-1,0-1.5-0.6-1.5-1.5c0-1,0.8-1.8,2.5-1.8c0.4,0,0.8,0,1,0V19.9  z M106.6,21.8c-0.3,0.1-0.5,0.2-0.9,0.2c-0.7,0-0.9-0.4-0.9-1.4v-5.2h1.8v-1.2h-1.8V12l-1.5,0.4v1.8h-1.4v1.2h1.4v5.7  c0,1.6,0.7,2.1,2,2.1c0.4,0,0.9-0.1,1.2-0.2V21.8z M109.7,10.6h-1.6v1.7h1.6V10.6z M108.2,23.1h1.5v-8.9h-1.5V23.1z M115.2,14.1  c-2.3,0-3.6,1.8-3.6,4.5c0,2.8,1.2,4.5,3.6,4.5c2.3,0,3.6-1.8,3.6-4.5C118.7,15.9,117.5,14.1,115.2,14.1 M115.2,22.1  c-1.4,0-2-1.1-2-3.4s0.6-3.4,2-3.4c1.4,0,2,1.1,2,3.4S116.6,22.1,115.2,22.1 M120.6,23.1h1.5v-5.3c0-1.6,0.7-2.4,1.9-2.4  c0.9,0,1.5,0.6,1.5,2v5.7h1.5V17c0-1.9-1-2.8-2.6-2.8c-1,0-1.8,0.4-2.2,1.4h0l-0.1-1.3h-1.4c0,0.6,0.1,1.3,0.1,1.9V23.1z   M129.6,16.2c0.5-0.6,1.4-0.9,2.3-0.9c0.6,0,1.2,0.2,1.5,0.6c0.3,0.4,0.3,0.8,0.3,1.4v0.4h-0.9c-3,0-4.2,1.3-4.2,3  c0,1.7,1.1,2.6,2.5,2.6c1.4,0,2.1-0.6,2.5-1.3h0l0.1,1.2h1.3c0-0.3-0.1-0.8-0.1-1.4v-4.6c0-1.2-0.4-1.8-0.8-2.2  c-0.3-0.3-1.1-0.8-2.4-0.8c-0.9,0-1.8,0.3-2.5,0.7L129.6,16.2z M133.7,19.9c0,1.2-0.8,2.2-2.1,2.2c-1,0-1.5-0.6-1.5-1.5  c0-1,0.8-1.8,2.5-1.8c0.4,0,0.8,0,1,0V19.9z M137.5,23.1h1.5v-13h-1.5V23.1z M145.9,23.1h1.5V11h-1.5V23.1z M150,23.1h1.5v-5.3  c0-1.6,0.7-2.4,1.9-2.4c0.9,0,1.5,0.6,1.5,2v5.7h1.5V17c0-1.9-1-2.8-2.6-2.8c-1,0-1.8,0.4-2.2,1.4h0l-0.1-1.3H150  c0,0.6,0.1,1.3,0.1,1.9V23.1z M158.1,22.7c0.6,0.3,1.5,0.5,2.4,0.5c2,0,2.8-1.2,2.8-2.7c0-1.1-0.7-1.8-1.8-2.3l-0.5-0.2  c-1-0.4-1.5-0.8-1.5-1.5c0-0.7,0.5-1.2,1.5-1.2c0.7,0,1.3,0.2,1.7,0.4l0.1-1.2c-0.5-0.2-1.1-0.3-1.9-0.3c-1.7,0-2.8,1.1-2.8,2.6  c0,1.1,0.5,1.7,1.7,2.3l1,0.4c0.8,0.4,1.1,0.8,1.1,1.4c0,0.7-0.6,1.2-1.7,1.2c-0.7,0-1.4-0.3-2.1-0.7L158.1,22.7z M169.1,21.8  c-0.3,0.1-0.5,0.2-0.9,0.2c-0.7,0-0.9-0.4-0.9-1.4v-5.2h1.8v-1.2h-1.8V12l-1.5,0.4v1.8h-1.4v1.2h1.4v5.7c0,1.6,0.7,2.1,2,2.1  c0.4,0,0.9-0.1,1.2-0.2V21.8z M172.1,10.6h-1.6v1.7h1.6V10.6z M170.6,23.1h1.5v-8.9h-1.5V23.1z M178.4,21.8  c-0.3,0.1-0.5,0.2-0.9,0.2c-0.7,0-0.9-0.4-0.9-1.4v-5.2h1.8v-1.2h-1.8V12l-1.5,0.4v1.8h-1.4v1.2h1.4v5.7c0,1.6,0.7,2.1,2,2.1  c0.4,0,0.9-0.1,1.2-0.2V21.8z M186.1,14.3h-1.5v5.3c0,1.6-0.7,2.4-1.9,2.4c-0.9,0-1.5-0.6-1.5-2v-5.7h-1.5v6.1c0,1.9,1,2.8,2.6,2.8  c1,0,1.8-0.4,2.2-1.4h0l0.1,1.3h1.4c0-0.6-0.1-1.3-0.1-1.9V14.3z M192.2,21.8c-0.3,0.1-0.5,0.2-0.9,0.2c-0.7,0-0.9-0.4-0.9-1.4v-5.2  h1.8v-1.2h-1.8V12l-1.5,0.4v1.8h-1.4v1.2h1.4v5.7c0,1.6,0.7,2.1,2,2.1c0.4,0,0.9-0.1,1.2-0.2V21.8z M199.7,19.1v-0.8  c0-2.6-1.1-4.2-3.1-4.2c-2.2,0-3.4,1.8-3.4,4.5c0,2.8,1.2,4.5,3.6,4.5c0.9,0,1.8-0.2,2.5-0.5l-0.1-1.3c-0.5,0.4-1.3,0.7-2,0.7  c-1.6,0-2.4-1-2.4-3H199.7z M194.7,18c0-2.1,0.9-2.8,1.8-2.8c1.2,0,1.7,0.9,1.7,2.8H194.7z M206.5,23.1h1.5v-7.7h1.6v-1.2h-1.6v-1.9  c0-0.9,0.2-1.3,1.1-1.3c0.3,0,0.7,0.1,0.8,0.2V10c-0.3-0.1-0.7-0.1-1.1-0.1c-1.5,0-2.2,1-2.2,2.4v2h-1.4v1.2h1.4V23.1z M214,14.1  c-2.3,0-3.6,1.8-3.6,4.5c0,2.8,1.2,4.5,3.6,4.5c2.3,0,3.6-1.8,3.6-4.5C217.5,15.9,216.3,14.1,214,14.1 M214,22.1c-1.4,0-2-1.1-2-3.4  s0.6-3.4,2-3.4c1.4,0,2,1.1,2,3.4S215.4,22.1,214,22.1 M219.4,23.1h1.5v-4.7c0-1.9,0.8-2.9,1.9-2.9c0.2,0,0.4,0,0.6,0.1v-1.4  c-1.3,0-2,0.4-2.5,1.5h0l-0.1-1.4h-1.4c0,0.6,0.1,1.3,0.1,1.9V23.1z M57.9,29.7l-4.1,12.1h1.5l1-3.2H61l1,3.2h1.6l-4-12.1H57.9z   M56.8,37.3l1.9-6h0l1.9,6H56.8z M64.8,45.5h1.5v-5h0c0.6,0.9,1.2,1.3,2.3,1.3c1.8,0,3.1-1.5,3.1-4.5c0-3.1-1.2-4.5-3.1-4.5  c-1.3,0-1.9,0.7-2.3,1.4h0l-0.1-1.3h-1.4c0,0.5,0.1,1.1,0.1,1.6V45.5z M68.2,40.7c-1.3,0-1.9-1.1-1.9-3.4c0-2.2,0.6-3.4,1.9-3.4  c1.3,0,1.9,1.1,1.9,3.4C70.1,39.6,69.5,40.7,68.2,40.7 M73.3,45.5h1.5v-5h0c0.6,0.9,1.2,1.3,2.3,1.3c1.8,0,3.1-1.5,3.1-4.5  c0-3.1-1.2-4.5-3.1-4.5c-1.3,0-1.9,0.7-2.3,1.4h0l-0.1-1.3h-1.4c0,0.5,0.1,1.1,0.1,1.6V45.5z M76.7,40.7c-1.3,0-1.9-1.1-1.9-3.4  c0-2.2,0.6-3.4,1.9-3.4c1.3,0,1.9,1.1,1.9,3.4C78.6,39.6,78,40.7,76.7,40.7 M82.1,41.8h1.5v-13h-1.5V41.8z M87.6,29.3H86V31h1.6  V29.3z M86.1,41.8h1.5v-8.9h-1.5V41.8z M96.1,37.8V37c0-2.6-1.1-4.2-3.1-4.2c-2.2,0-3.4,1.8-3.4,4.5c0,2.8,1.2,4.5,3.6,4.5  c0.9,0,1.8-0.2,2.5-0.5l-0.1-1.3c-0.5,0.4-1.3,0.7-2,0.7c-1.6,0-2.4-1-2.4-3H96.1z M91.1,36.7c0-2.1,0.9-2.8,1.8-2.8  c1.2,0,1.7,0.9,1.7,2.8H91.1z M104.2,28.8h-1.5v5.4h0c-0.6-0.9-1.3-1.3-2.3-1.3c-1.8,0-3.1,1.5-3.1,4.5c0,3.1,1.2,4.5,3.1,4.5  c1.3,0,1.9-0.7,2.3-1.4h0l0,1.3h1.4c0-0.5-0.1-1.1-0.1-1.6V28.8z M100.8,34c1.3,0,1.9,1.1,1.9,3.4s-0.6,3.4-1.9,3.4  c-1.3,0-1.9-1.1-1.9-3.4S99.5,34,100.8,34 M116,30c-0.5-0.2-1.4-0.4-2.2-0.4c-1.8,0-3.4,1-3.4,3c0,1.6,0.5,2.3,2.7,3.6  c1.6,1,1.9,1.5,1.9,2.5c0,1-0.8,1.9-2.2,1.9c-0.7,0-1.6-0.4-2.3-0.8v1.6c0.6,0.3,1.6,0.5,2.5,0.5c2.3,0,3.5-1.5,3.5-3.4  c0-1.4-0.6-2.4-2.5-3.5c-1.7-1-2-1.5-2-2.3c0-1,0.7-1.8,1.9-1.8c0.7,0,1.5,0.2,2.1,0.6V30z M124.4,32.9H123l-1.8,7.2h0l-2-7.2h-1.5  l2.8,9l-0.3,1.4c-0.2,0.9-0.6,1.1-1,1.1c-0.3,0-0.6-0.1-0.8-0.2l-0.1,1.3c0.3,0.1,0.6,0.1,1,0.1c1.1,0,1.7-0.5,2.2-2L124.4,32.9z   M125.3,41.4c0.6,0.3,1.5,0.5,2.4,0.5c2,0,2.8-1.2,2.8-2.7c0-1.1-0.7-1.8-1.8-2.3l-0.5-0.2c-1-0.4-1.5-0.8-1.5-1.5  c0-0.7,0.5-1.2,1.5-1.2c0.7,0,1.3,0.2,1.7,0.4l0.1-1.2c-0.5-0.2-1.1-0.3-1.9-0.3c-1.7,0-2.8,1.1-2.8,2.6c0,1.1,0.5,1.7,1.7,2.3  l1,0.4c0.8,0.4,1.1,0.8,1.1,1.4c0,0.7-0.6,1.2-1.7,1.2c-0.7,0-1.4-0.3-2.1-0.7L125.3,41.4z M136.3,40.5c-0.3,0.1-0.5,0.2-0.9,0.2  c-0.7,0-0.9-0.4-0.9-1.4v-5.2h1.8v-1.2h-1.8v-2.2l-1.5,0.4v1.8h-1.4v1.2h1.4v5.7c0,1.6,0.7,2.1,2,2.1c0.4,0,0.9-0.1,1.2-0.2V40.5z   M143.8,37.8V37c0-2.6-1.1-4.2-3.1-4.2c-2.2,0-3.4,1.8-3.4,4.5c0,2.8,1.2,4.5,3.6,4.5c0.9,0,1.8-0.2,2.5-0.5l-0.1-1.3  c-0.5,0.4-1.3,0.7-2,0.7c-1.6,0-2.4-1-2.4-3H143.8z M138.8,36.7c0-2.1,0.9-2.8,1.8-2.8c1.2,0,1.7,0.9,1.7,2.8H138.8z M145.6,41.8  h1.5v-5.5c0-1.6,0.6-2.3,1.7-2.3c0.9,0,1.4,0.5,1.4,1.6v6.1h1.5v-5.5c0-1.6,0.6-2.3,1.7-2.3c0.9,0,1.4,0.5,1.4,1.6v6.1h1.5v-6.1  c0-1.9-1-2.8-2.6-2.8c-1,0-1.7,0.5-2.2,1.4c-0.5-0.9-1.1-1.4-2.1-1.4c-1,0-1.7,0.4-2.2,1.4h0l-0.1-1.3h-1.4c0,0.6,0.1,1.3,0.1,1.9  V41.8z M157.8,41.4c0.6,0.3,1.5,0.5,2.4,0.5c2,0,2.8-1.2,2.8-2.7c0-1.1-0.7-1.8-1.8-2.3l-0.5-0.2c-1-0.4-1.5-0.8-1.5-1.5  c0-0.7,0.5-1.2,1.5-1.2c0.7,0,1.3,0.2,1.7,0.4l0.1-1.2c-0.5-0.2-1.1-0.3-1.9-0.3c-1.7,0-2.8,1.1-2.8,2.6c0,1.1,0.5,1.7,1.7,2.3  l1,0.4c0.8,0.4,1.1,0.8,1.1,1.4c0,0.7-0.6,1.2-1.7,1.2c-0.7,0-1.4-0.3-2.1-0.7L157.8,41.4z M171.4,29.7l-4.1,12.1h1.5l1-3.2h4.6  l1,3.2h1.6l-4-12.1H171.4z M170.3,37.3l1.9-6h0l1.9,6H170.3z M178.4,41.8h1.5v-5.3c0-1.6,0.7-2.4,1.9-2.4c0.9,0,1.5,0.6,1.5,2v5.7  h1.5v-6.1c0-1.9-1-2.8-2.6-2.8c-1,0-1.8,0.4-2.2,1.4h0l-0.1-1.3h-1.4c0,0.6,0.1,1.3,0.1,1.9V41.8z M187.4,34.9  c0.5-0.6,1.4-0.9,2.3-0.9c0.6,0,1.2,0.2,1.5,0.6c0.3,0.4,0.3,0.8,0.3,1.4v0.4h-0.9c-3,0-4.2,1.3-4.2,3c0,1.7,1.1,2.6,2.6,2.6  c1.4,0,2.1-0.6,2.5-1.3h0l0.1,1.2h1.3c0-0.3-0.1-0.8-0.1-1.4v-4.6c0-1.2-0.4-1.8-0.8-2.2c-0.3-0.3-1.1-0.8-2.4-0.8  c-0.9,0-1.8,0.3-2.5,0.7L187.4,34.9z M191.5,38.6c0,1.2-0.8,2.2-2.1,2.2c-1,0-1.5-0.6-1.5-1.5c0-1,0.8-1.8,2.5-1.8c0.4,0,0.8,0,1,0  V38.6z M195.3,41.8h1.5v-13h-1.5V41.8z M205,32.9h-1.5l-1.8,7.2h0l-2-7.2h-1.5l2.8,9l-0.3,1.4c-0.2,0.9-0.6,1.1-1,1.1  c-0.3,0-0.6-0.1-0.8-0.2l-0.1,1.3c0.3,0.1,0.6,0.1,1,0.1c1.1,0,1.7-0.5,2.2-2L205,32.9z M205.9,41.4c0.6,0.3,1.5,0.5,2.4,0.5  c2,0,2.8-1.2,2.8-2.7c0-1.1-0.7-1.8-1.8-2.3l-0.5-0.2c-1-0.4-1.5-0.8-1.5-1.5c0-0.7,0.5-1.2,1.5-1.2c0.7,0,1.3,0.2,1.7,0.4l0.1-1.2  c-0.5-0.2-1.1-0.3-1.9-0.3c-1.7,0-2.8,1.1-2.8,2.6c0,1.1,0.5,1.7,1.7,2.3l1,0.4c0.8,0.4,1.1,0.8,1.1,1.4c0,0.7-0.6,1.2-1.7,1.2  c-0.7,0-1.4-0.3-2.1-0.7L205.9,41.4z M214.6,29.3H213V31h1.6V29.3z M213.1,41.8h1.5v-8.9h-1.5V41.8z M216.5,41.4  c0.6,0.3,1.5,0.5,2.4,0.5c2,0,2.8-1.2,2.8-2.7c0-1.1-0.7-1.8-1.8-2.3l-0.5-0.2c-1-0.4-1.5-0.8-1.5-1.5c0-0.7,0.5-1.2,1.5-1.2  c0.7,0,1.3,0.2,1.7,0.4l0.1-1.2c-0.5-0.2-1.1-0.3-1.9-0.3c-1.7,0-2.8,1.1-2.8,2.6c0,1.1,0.5,1.7,1.7,2.3l1,0.4  c0.8,0.4,1.1,0.8,1.1,1.4c0,0.7-0.6,1.2-1.7,1.2c-0.7,0-1.4-0.3-2.1-0.7L216.5,41.4z"/>
<path id="iiasa-logo-symbol" fill="#00599D" d="M26.7,8.9c6.8,0,12.6,3.8,15.6,9.4l-31.2,0C14.1,12.7,20,8.9,26.7,8.9 M44.3,25.9  c0-1.3-0.2-2.6-0.5-3.8l-32.6-3.8c-1.3,2.5-2,5.3-2,8.2c0,1.5,0.2,3,0.6,4.4L26,32.9l0-7H44.3z M11.1,34.8c2.9,5.4,8.4,9.1,14.9,9.4  v-9.4L11.1,34.8z M42.3,34.8c1.2-2.3,1.9-4.8,2-7.5H27.4v5.8L42.3,34.8z M42.3,34.8l-14.9,0v9.4C33.9,43.9,39.5,40.2,42.3,34.8   M2.9,2.7h41.4V1.5H1.7v43.6h1.2V2.7z M1.7,63.3H3V51.2H1.7V63.3z M11.8,63.3H13V51.2h-1.2V63.3z M20,63.3h1.2l0.4-2.7h1.8l0.3,2.7  h1.2l-1.8-12.2h-1.3L20,63.3z M21.8,59.2l0.7-5.1h0l0.7,5.1H21.8z M30.9,63c0.4,0.3,0.8,0.5,1.2,0.5c1.2,0,2-1.1,2-2.8  c0-2.6-2.1-5.2-2.1-7.1c0-0.8,0.3-1.2,0.9-1.2c0.3,0,0.5,0.1,0.9,0.4v-1.5c-0.4-0.2-0.7-0.3-1-0.3c-1.2,0-2,1.1-2,2.8  c0,2.5,2.1,5.2,2.1,7.1c0,0.7-0.4,1.2-0.9,1.2c-0.4,0-0.7-0.3-1.1-0.7V63z M40.1,63.3h1.2l0.4-2.7h1.8l0.3,2.7H45l-1.8-12.2h-1.3  L40.1,63.3z M41.9,59.2l0.7-5.1h0l0.7,5.1H41.9z"/>
</svg>